 <svg  version="1.0" xmlns="http://www.w3.org/2000/svg"  width="300.000000pt" height="300.000000pt" viewBox="0 0 300.000000 300.000000"  preserveAspectRatio="xMidYMid meet">  <g transform="translate(0.000000,300.000000) scale(0.050000,-0.050000)" fill="#ffffff" stroke="none"> <path d="M2960 5648 c-209 -56 -337 -213 -355 -435 -27 -339 177 -538 587 -573 562 -48 937 -466 935 -1040 -3 -800 -483 -1525 -1232 -1861 -401 -179 138 -241 777 -89 1349 321 1943 2042 1100 3185 -435 590 -1261 960 -1812 813z"/> <path d="M2573 4369 c-1045 -163 -1721 -960 -1721 -2029 0 -1101 819 -1987 1880 -2034 446 -20 641 116 664 463 22 343 -174 524 -616 568 -1361 136 -1139 2206 310 2885 262 123 218 179 -136 176 -112 -1 -283 -14 -381 -29z"/> <path d="M2831 3471 c-395 -146 -465 -691 -118 -911 518 -328 1078 331 660 777 -132 140 -369 199 -542 134z"/> </g> </svg> 